HIERARCHY
ROOT Hips
{
	OFFSET 0 0 0
	CHANNELS 6 Xposition Yposition Zposition Yrotation Xrotation Zrotation
	JOINT Spine
	{
		OFFSET -0 8.2975 -2.64483
		CHANNELS 3 Yrotation Xrotation Zrotation
		JOINT Spine1
		{
			OFFSET -0 9.08023 0
			CHANNELS 3 Yrotation Xrotation Zrotation
			JOINT Spine2
			{
				OFFSET -0 9.08023 0
				CHANNELS 3 Yrotation Xrotation Zrotation
				JOINT Spine3
				{
					OFFSET -0 9.08023 0
					CHANNELS 3 Yrotation Xrotation Zrotation
					JOINT Neck
					{
						OFFSET -0 14.3448 3.64483
						CHANNELS 3 Yrotation Xrotation Zrotation
						JOINT Head
						{
							OFFSET -0 10.3719 0
							CHANNELS 3 Yrotation Xrotation Zrotation
							End Site
							{
								OFFSET 0 15 0
							}
						}
					}
					JOINT LeftShoulder
					{
						OFFSET 1.72865 2.06938 3.45729
						CHANNELS 3 Yrotation Xrotation Zrotation
						JOINT LeftArm
						{
							OFFSET 20.087 0 0
							CHANNELS 3 Yrotation Xrotation Zrotation
							JOINT LeftForeArm
							{
								OFFSET 21.3119 0 0
								CHANNELS 3 Yrotation Xrotation Zrotation
								JOINT LeftHand
								{
									OFFSET 23.4377 0 0
									CHANNELS 3 Yrotation Xrotation Zrotation
									End Site
									{
										OFFSET 15 0 0
									}
								}
							}
						}
					}
					JOINT RightShoulder
					{
						OFFSET -1.72865 2.06938 3.45729
						CHANNELS 3 Yrotation Xrotation Zrotation
						JOINT RightArm
						{
							OFFSET -20.087 0 0
							CHANNELS 3 Yrotation Xrotation Zrotation
							JOINT RightForeArm
							{
								OFFSET -21.3119 0 0
								CHANNELS 3 Yrotation Xrotation Zrotation
								JOINT RightHand
								{
									OFFSET -23.4377 0 0
									CHANNELS 3 Yrotation Xrotation Zrotation
									End Site
									{
										OFFSET -15 0 0
									}
								}
							}
						}
					}
				}
			}
		}
	}
	JOINT LeftUpLeg
	{
		OFFSET 10.3719 -3.45729 2
		CHANNELS 3 Yrotation Xrotation Zrotation
		JOINT LeftLeg
		{
			OFFSET -0 -37.3125 2.4201
			CHANNELS 3 Yrotation Xrotation Zrotation
			JOINT LeftFoot
			{
				OFFSET -0 -42.7104 -2.4201
				CHANNELS 3 Yrotation Xrotation Zrotation
				JOINT LeftToeBase
				{
					OFFSET -0 -6.6743 15.5578
					CHANNELS 3 Yrotation Xrotation Zrotation
					End Site
					{
						OFFSET 0 0 5
					}
				}
			}
		}
	}
	JOINT RightUpLeg
	{
		OFFSET -10.3719 -3.45729 2
		CHANNELS 3 Yrotation Xrotation Zrotation
		JOINT RightLeg
		{
			OFFSET -0 -37.3125 2.4201
			CHANNELS 3 Yrotation Xrotation Zrotation
			JOINT RightFoot
			{
				OFFSET -0 -42.7104 -2.4201
				CHANNELS 3 Yrotation Xrotation Zrotation
				JOINT RightToeBase
				{
					OFFSET -0 -6.6743 15.5578
					CHANNELS 3 Yrotation Xrotation Zrotation
					End Site
					{
						OFFSET 0 0 5
					}
				}
			}
		}
	}
}
MOTION
Frames: 7
Frame Time: 0.00833333
0 92.977344 0 0 0 0 0 0 0 0 0 0 0 0 0 0 0 0 0 0 0 0 0 0 0 0 0 0 0 0 0 0 0 0 0 0 0 0 0 0 0 0 0 0 0 0 0 0 0 0 0 0 0 0 0 0 0 0 0 0 0 0 0 0 0 0 0 0 0 0 0 0
178.900464 93.118915 280.552979 -7.494887 0.849319 -0.120613 -0.143304 0.155538 0.329116 -0.061312 0.385433 0.277726 0.107569 0.535942 0.230083 0.180211 0.694183 0.133308 1.302859 -2.943169 3.205816 0.744622 -0.000994 -5.759994 16.124094 13.885501 -1.649832 -61.242337 -10.557621 -60.847718 -5.038143 -7.336676 15.470804 18.634429 -8.694965 1.903130 -12.637559 8.877557 5.005364 56.535477 -1.138306 58.117982 9.196209 -8.883494 -14.088378 -30.416350 -12.534125 -5.659312 9.022716 0.744569 -0.479339 0.000000 -0.160257 0.000000 14.340730 -0.479702 -1.439647 0.000000 -3.594218 0.000000 -6.238133 -0.352314 -0.255724 0.000000 -1.254846 0.000000 -13.523609 3.031765 0.038048 0.000000 -4.716064 0.000000
178.898328 93.118066 280.560620 -7.481508 0.853159 -0.118415 -0.156896 0.123820 0.325244 -0.073648 0.417949 0.277374 0.106922 0.554071 0.237742 0.182439 0.685842 0.124534 1.298433 -2.965678 3.212074 0.742991 0.018600 -5.772253 16.149643 13.890736 -1.660107 -61.238337 -10.564418 -60.833234 -5.027796 -7.268730 15.453113 18.593649 -8.822051 1.903305 -12.644560 8.846269 5.001988 56.580493 -1.103289 58.131376 9.210266 -8.904219 -14.088345 -30.384260 -12.514423 -5.658153 9.019124 0.743279 -0.482534 0.000000 -0.158902 0.000000 14.346672 -0.509584 -1.441963 0.000000 -3.531319 0.000000 -6.254137 -0.347708 -0.258953 0.000000 -1.253519 0.000000 -13.495730 3.017344 0.016022 0.000000 -4.692642 0.000000
178.896619 93.118854 280.560742 -7.484448 0.853714 -0.120025 -0.160359 0.128674 0.325576 -0.077581 0.406755 0.277162 0.100025 0.554898 0.239835 0.176430 0.700778 0.124415 1.303577 -2.969493 3.192164 0.744174 0.021602 -5.741679 16.148857 13.874257 -1.661252 -61.162273 -10.597434 -60.859818 -5.021934 -7.238866 15.432389 18.575999 -8.764433 1.910503 -12.603644 8.847926 4.995215 56.600085 -1.132020 58.129122 9.153965 -8.947879 -14.092446 -30.351162 -12.482517 -5.639518 9.033843 0.742741 -0.482142 0.000000 -0.156144 0.000000 14.337301 -0.510023 -1.445032 0.000000 -3.504971 0.000000 -6.271470 -0.350561 -0.253425 0.000000 -1.252800 0.000000 -13.477842 3.014170 0.030034 0.000000 -4.672888 0.000000
178.892419 93.117572 280.565527 -7.482185 0.854929 -0.122765 -0.154274 0.186395 0.338425 -0.074051 0.339156 0.276190 0.094997 0.530574 0.213648 0.167200 0.730185 0.124141 1.301524 -2.930701 3.219697 0.746502 -0.041398 -5.756464 16.163981 13.879780 -1.640909 -61.170923 -10.603382 -60.857693 -5.030628 -7.299237 15.426888 18.541776 -8.739075 1.929524 -12.602582 8.873852 5.009189 56.553757 -1.164081 58.112654 9.179017 -8.928689 -14.075640 -30.339778 -12.446193 -5.744959 9.022392 0.747807 -0.475210 0.000000 -0.165242 0.000000 14.323343 -0.494605 -1.399089 0.000000 -3.546235 0.000000 -6.264691 -0.349763 -0.250396 0.000000 -1.246967 0.000000 -13.491641 3.015247 0.003424 0.000000 -4.726002 0.000000
178.889868 93.116064 280.572388 -7.469718 0.857499 -0.123645 -0.169384 0.163570 0.329381 -0.088676 0.365997 0.278075 0.102116 0.532919 0.223517 0.174722 0.716150 0.128295 1.311565 -2.912030 3.222303 0.751199 -0.059219 -5.760988 16.170289 13.877054 -1.648323 -61.177726 -10.581980 -60.877632 -5.028876 -7.246553 15.426975 18.538408 -8.771420 1.869516 -12.606467 8.875277 4.999465 56.615138 -1.085256 58.117412 9.224057 -8.938086 -14.091353 -30.385118 -12.501701 -5.677093 9.033505 0.748883 -0.473384 0.000000 -0.162769 0.000000 14.308392 -0.521346 -1.418568 0.000000 -3.458876 0.000000 -6.261207 -0.347484 -0.248717 0.000000 -1.243736 0.000000 -13.514716 3.005392 0.012275 0.000000 -4.678849 0.000000
178.890405 93.120178 280.573779 -7.472976 0.856482 -0.123251 -0.179567 0.130905 0.325630 -0.096858 0.428516 0.280039 0.111556 0.531371 0.239560 0.189058 0.696120 0.119767 1.297741 -2.917227 3.225141 0.746241 -0.057878 -5.788568 16.158754 13.869600 -1.677606 -61.167392 -10.609362 -60.874109 -5.003788 -7.311190 15.469651 18.588207 -8.709527 1.664802 -12.599963 8.870031 4.988400 56.613069 -1.113269 58.119738 9.188603 -8.982718 -14.081818 -30.325836 -12.491320 -5.711737 9.022092 0.749072 -0.474388 0.000000 -0.159803 0.000000 14.317082 -0.494991 -1.403462 0.000000 -3.483241 0.000000 -6.247451 -0.348749 -0.247870 0.000000 -1.236277 0.000000 -13.518609 2.994632 -0.001188 0.000000 -4.638045 0.000000
